<?xml version="1.0" encoding="UTF-8"?>
<svg width="180px" height="180px" viewBox="0 0 180 180" version="1.1" xmlns="http://www.w3.org/2000/svg" xmlns:xlink="http://www.w3.org/1999/xlink">
    <!-- Generator: Sketch 52.2 (67145) - http://www.bohemiancoding.com/sketch -->
    <title>icon large / 10 years</title>
    <desc>Created with Sketch.</desc>
    <defs>
        <polygon id="path-1" points="0 80 141 80 141 0 0 0"></polygon>
    </defs>
    <g id="icon-large-/-10-years" stroke="none" stroke-width="1" fill="none" fill-rule="evenodd" opacity="0.600000024">
        <g id="Group-44" transform="translate(20.000000, 50.000000)">
            <path d="M123,79 C122.448,79 122,78.553 122,78 L122,59 C122,58.448 122.448,58 123,58 C123.552,58 124,58.448 124,59 L124,78 C124,78.553 123.552,79 123,79" id="Fill-1" fill="#262F40"></path>
            <path d="M125.999,64 C125.895,64 125.789,63.983 125.684,63.948 C125.533,63.898 122,62.679 122,59 C122,58.448 122.448,58 123,58 C123.552,58 124,58.448 124,59 C124,61.224 126.227,62.021 126.322,62.053 C126.841,62.233 127.121,62.8 126.944,63.32 C126.803,63.737 126.416,64 125.999,64" id="Fill-3" fill="#262F40"></path>
            <path d="M120,64 C119.581,64 119.191,63.735 119.051,63.316 C118.877,62.794 119.158,62.229 119.678,62.053 C119.773,62.021 122,61.224 122,59 C122,58.448 122.448,58 123,58 C123.552,58 124,58.448 124,59 C124,62.679 120.467,63.898 120.316,63.948 C120.211,63.983 120.104,64 120,64" id="Fill-5" fill="#262F40"></path>
            <path d="M127.0005,69 C126.9015,69 126.8005,68.985 126.7015,68.954 C126.5095,68.895 122.0005,67.435 122.0005,63 C122.0005,62.447 122.4475,62 123.0005,62 C123.5525,62 124.0005,62.447 124.0005,63 C124.0005,65.98 127.2655,67.035 127.2985,67.046 C127.8255,67.21 128.1195,67.771 127.9545,68.298 C127.8205,68.727 127.4265,69 127.0005,69" id="Fill-7" fill="#262F40"></path>
            <path d="M118.9995,69 C118.5735,69 118.1795,68.727 118.0455,68.298 C117.8805,67.772 118.1735,67.212 118.6985,67.047 C118.8445,66.999 121.9995,65.947 121.9995,63 C121.9995,62.447 122.4475,62 122.9995,62 C123.5525,62 123.9995,62.447 123.9995,63 C123.9995,67.435 119.4905,68.895 119.2985,68.954 C119.1995,68.985 119.0985,69 118.9995,69" id="Fill-9" fill="#262F40"></path>
            <path d="M128.0005,74 C127.9205,74 127.8385,73.99 127.7575,73.97 C127.5225,73.911 122.0005,72.479 122.0005,68 C122.0005,67.447 122.4475,67 123.0005,67 C123.5525,67 124.0005,67.447 124.0005,68 C124.0005,70.916 128.2025,72.02 128.2445,72.03 C128.7785,72.166 129.1035,72.71 128.9685,73.244 C128.8545,73.697 128.4475,74 128.0005,74" id="Fill-11" fill="#262F40"></path>
            <path d="M117.999,74 C117.551,74 117.144,73.697 117.03,73.242 C116.896,72.707 117.221,72.165 117.755,72.03 C117.798,72.02 122,70.916 122,68 C122,67.447 122.448,67 123,67 C123.552,67 124,67.447 124,68 C124,72.479 118.478,73.911 118.243,73.97 C118.161,73.99 118.08,74 117.999,74" id="Fill-13" fill="#262F40"></path>
            <path d="M10,79 C9.448,79 9,78.553 9,78 L9,66 C9,65.447 9.448,65 10,65 C10.552,65 11,65.447 11,66 L11,78 C11,78.553 10.552,79 10,79" id="Fill-15" fill="#262F40"></path>
            <path d="M12.999,71 C12.895,71 12.789,70.983 12.684,70.948 C12.533,70.898 9,69.679 9,66 C9,65.447 9.448,65 10,65 C10.552,65 11,65.447 11,66 C11,68.224 13.227,69.021 13.322,69.053 C13.841,69.233 14.121,69.8 13.944,70.32 C13.803,70.737 13.416,71 12.999,71" id="Fill-17" fill="#262F40"></path>
            <path d="M7,71 C6.581,71 6.191,70.735 6.051,70.316 C5.877,69.794 6.158,69.229 6.678,69.053 C6.773,69.021 9,68.224 9,66 C9,65.447 9.448,65 10,65 C10.552,65 11,65.447 11,66 C11,69.679 7.467,70.898 7.316,70.948 C7.211,70.983 7.104,71 7,71" id="Fill-19" fill="#262F40"></path>
            <path d="M14.0005,76 C13.9015,76 13.8005,75.985 13.7015,75.954 C13.5095,75.895 9.0005,74.435 9.0005,70 C9.0005,69.447 9.4475,69 10.0005,69 C10.5525,69 11.0005,69.447 11.0005,70 C11.0005,72.98 14.2655,74.035 14.2985,74.046 C14.8255,74.21 15.1195,74.771 14.9545,75.298 C14.8205,75.727 14.4265,76 14.0005,76" id="Fill-21" fill="#262F40"></path>
            <path d="M5.9995,76 C5.5735,76 5.1795,75.727 5.0455,75.298 C4.8805,74.772 5.1735,74.212 5.6985,74.047 C5.8445,73.999 8.9995,72.947 8.9995,70 C8.9995,69.447 9.4475,69 9.9995,69 C10.5525,69 10.9995,69.447 10.9995,70 C10.9995,74.435 6.4905,75.895 6.2985,75.954 C6.1995,75.985 6.0985,76 5.9995,76" id="Fill-23" fill="#262F40"></path>
            <path d="M139,80 L1,80 C0.448,80 0,79.553 0,79 C0,78.447 0.448,78 1,78 L139,78 C139.552,78 140,78.447 140,79 C140,79.553 139.552,80 139,80" id="Fill-25" fill="#262F40"></path>
            <polygon id="Fill-27" fill="#D9D6D2" points="4 32 23 32 23 24 1 24"></polygon>
            <path d="M126.9019,25 L133.0979,25 C137.1039,22.428 139.9999,15.44 139.9999,11 L119.9999,11 C119.9999,15.44 122.8969,22.428 126.9019,25" id="Fill-29" fill="#D9D6D2"></path>
            <path d="M91,61 C88.791,61 87,59.209 87,57 L87,25 C87,22.791 88.791,21 91,21 C93.209,21 95,22.791 95,25 L95,57 C95,59.209 93.209,61 91,61 M91,2 C78.297,2 68,12.297 68,25 L68,57 C68,58.017 68.074,59.017 68.204,60 L60,60 L60,33 L60,19 L60,5 C60,4.448 59.552,4 59,4 L45,4 C44.448,4 44,4.448 44,5 C44,12.168 38.168,18 31,18 C30.448,18 30,18.448 30,19 L30,33 C30,33.552 30.448,34 31,34 L40,34 L40,60 L31,60 C30.448,60 30,60.448 30,61 L30,79 C30,79.553 30.448,80 31,80 L41,80 L59,80 L91,80 C103.703,80 114,69.702 114,57 L114,25 C114,12.297 103.703,2 91,2 M91,63 C94.309,63 97,60.309 97,57 L97,25 C97,21.691 94.309,19 91,19 C87.691,19 85,21.691 85,25 L85,57 C85,60.309 87.691,63 91,63 M91,4 C102.58,4 112,13.42 112,25 L112,57 C112,68.579 102.58,78 91,78 L59,78 L41,78 L32,78 L32,62 L40,62 L42,62 L42,60 L42,34 L42,32 L40,32 L32,32 L32,19.967 C39.476,19.472 45.472,13.476 45.967,6 L58,6 L58,19 L58,33 L58,60 L58,62 L60,62 L68.204,62 L70.484,62 L70.187,59.739 C70.063,58.801 70,57.879 70,57 L70,25 C70,13.42 79.42,4 91,4" id="Fill-31" fill="#262F40"></path>
            <path d="M59,76 L91,76 C101.477,76 110,67.477 110,57 L110,40 L99,40 L99,57 C99,61.411 95.411,65 91,65 C86.589,65 83,61.411 83,57 L83,40 L72,40 L72,57 C72,57.792 72.057,58.625 72.169,59.477 L72.766,64 L68.204,64 L60,64 L56,64 L56,60 L56,40 L44,40 L44,60 L44,64 L40,64 L34,64 L34,76 L41,76 L59,76 Z" id="Fill-33" fill="#D9D6D2"></path>
            <path d="M2.4429,39 L21.9999,39 L21.9999,25 L2.4429,25 L4.9369,31.649 C5.0209,31.875 5.0209,32.125 4.9369,32.351 L2.4429,39 Z M22.9999,41 L0.9999,41 C0.6719,41 0.3649,40.839 0.1779,40.57 C-0.0091,40.3 -0.0511,39.956 0.0639,39.649 L2.9319,32 L0.0639,24.351 C-0.0511,24.044 -0.0091,23.7 0.1779,23.43 C0.3649,23.161 0.6719,23 0.9999,23 L22.9999,23 C23.5519,23 23.9999,23.448 23.9999,24 L23.9999,40 C23.9999,40.552 23.5519,41 22.9999,41 Z" id="Fill-35" fill="#262F40"></path>
            <path d="M26,7 L22.065,7 L22.748,5.569 C22.915,5.219 23,4.859 23,4.5 C23,3.122 21.878,2 20.5,2 C19.592,2 18.754,2.506 18.313,3.322 L17.753,4.356 L16.822,3.637 C16.283,3.22 15.653,3 15,3 C13.346,3 12,4.346 12,6 L12,7 L8,7 C7.448,7 7,6.552 7,6 C7,5.448 7.448,5 8,5 L10.101,5 C10.565,2.721 12.585,1 15,1 C15.755,1 16.488,1.172 17.162,1.503 C18.005,0.558 19.212,0 20.5,0 C22.981,0 25,2.019 25,4.5 C25,4.667 24.99,4.834 24.971,5 L26,5 C26.552,5 27,5.448 27,6 C27,6.552 26.552,7 26,7" id="Fill-37" fill="#262F40"></path>
            <path d="M23,80 C22.448,80 22,79.553 22,79 L22,23 C22,22.448 22.448,22 23,22 C23.552,22 24,22.448 24,23 L24,79 C24,79.553 23.552,80 23,80" id="Fill-39" fill="#262F40"></path>
            <mask id="mask-2" fill="white">
                <use xlink:href="#path-1"></use>
            </mask>
            <g id="Clip-42"></g>
            <path d="M128,31 L132,31 L132,29 L128,29 L128,31 Z M133,33 L127,33 C126.448,33 126,32.552 126,32 L126,28 C126,27.448 126.448,27 127,27 L133,27 C133.552,27 134,27.448 134,28 L134,32 C134,32.552 133.552,33 133,33 Z" id="Fill-41" fill="#262F40" mask="url(#mask-2)"></path>
            <path d="M127.2061,24 L132.7941,24 C136.3081,21.54 139.0001,15.082 139.0001,11 C139.0001,6.038 134.9621,2 130.0001,2 C125.0381,2 121.0001,6.038 121.0001,11 C121.0001,15.082 123.6921,21.54 127.2061,24 Z M133.3921,26 L126.6081,26 L126.3611,25.841 C122.0231,23.056 119.0001,15.784 119.0001,11 C119.0001,4.935 123.9351,0 130.0001,0 C136.0651,0 141.0001,4.935 141.0001,11 C141.0001,15.784 137.9771,23.056 133.6391,25.841 L133.3921,26 Z" id="Fill-43" fill="#262F40" mask="url(#mask-2)"></path>
        </g>
    </g>
</svg>