<svg width="151" height="186" viewBox="0 0 151 186" fill="none" xmlns="http://www.w3.org/2000/svg">
<rect width="151" height="186" fill="white"/>
<path d="M31 103.144C30.9942 105.137 31.67 107.072 32.9152 108.629C34.1604 110.185 35.9002 111.27 37.8462 111.701C39.7922 112.133 41.8273 111.887 43.6141 111.004C45.4009 110.12 46.832 108.652 47.67 106.844L76.25 115.474C76.1779 115.907 76.1411 116.345 76.14 116.784C76.14 119.104 77.0619 121.33 78.7029 122.971C80.3438 124.612 82.5694 125.534 84.89 125.534C87.2107 125.534 89.4363 124.612 91.0772 122.971C92.7182 121.33 93.64 119.104 93.64 116.784C93.6351 115.799 93.4661 114.823 93.14 113.894L103.91 108.284C104.758 109.449 105.881 110.386 107.179 111.012C108.477 111.638 109.909 111.934 111.349 111.872C112.789 111.811 114.191 111.395 115.431 110.66C116.67 109.926 117.709 108.896 118.455 107.663C119.201 106.43 119.63 105.032 119.705 103.593C119.779 102.154 119.497 100.719 118.883 99.4152C118.269 98.1116 117.342 96.9802 116.184 96.1215C115.027 95.2629 113.676 94.7036 112.25 94.4937V82.9337C114.452 82.6343 116.457 81.5074 117.858 79.7824C119.258 78.0573 119.949 75.8635 119.79 73.6471C119.631 71.4307 118.633 69.3582 117 67.8511C115.368 66.3439 113.222 65.5153 111 65.5337C109.499 65.5304 108.024 65.92 106.72 66.6637L92.25 47.8737C93.2554 46.8475 93.9927 45.5896 94.3968 44.211C94.8008 42.8324 94.8592 41.3755 94.5668 39.969C94.2744 38.5625 93.6402 37.2496 92.7202 36.1463C91.8001 35.043 90.6226 34.1831 89.2915 33.6427C87.9605 33.1023 86.5168 32.8979 85.088 33.0477C83.6593 33.1974 82.2894 33.6966 81.0992 34.5012C79.9091 35.3058 78.9354 36.3911 78.2641 37.6612C77.5928 38.9312 77.2445 40.3471 77.25 41.7837C77.2513 42.506 77.3454 43.2253 77.53 43.9237L51.02 54.8337C50.2785 53.5963 49.2422 52.5616 48.0036 51.8221C46.765 51.0826 45.3626 50.6611 43.9215 50.5954C42.4804 50.5296 41.0455 50.8216 39.7447 51.4452C38.4439 52.0689 37.3177 53.0048 36.4665 54.1695C35.6154 55.3343 35.0658 56.6916 34.8667 58.1204C34.6677 59.5491 34.8254 61.005 35.3258 62.358C35.8262 63.711 36.6537 64.9191 37.7345 65.8746C38.8153 66.83 40.1159 67.503 41.52 67.8337L39.25 94.4137C37.0206 94.5413 34.9243 95.5164 33.3905 97.1395C31.8567 98.7625 31.0015 100.911 31 103.144ZM47.3 98.7337C46.9282 98.0966 46.478 97.5087 45.96 96.9837L57.79 81.2837L65.14 91.5137L47.3 98.7337ZM43.96 95.4737C43.2577 95.0926 42.5078 94.8067 41.73 94.6237L44.01 68.0037C45.2449 67.9281 46.449 67.587 47.54 67.0037L56.25 79.1637L43.96 95.4737ZM84.33 69.6337L84.11 83.8237L83.78 83.9637L64.98 71.7437L69.12 66.2837L84.33 69.6337ZM70.77 64.0637L81.77 49.4437C82.6471 49.9411 83.6052 50.2796 84.6 50.4437L84.36 67.0837L70.77 64.0637ZM84.06 87.1237L83.74 108.124C82.7192 108.252 81.7299 108.563 80.82 109.044L69.03 92.6337L83.51 86.7637L84.06 87.1237ZM80.95 85.1237L67.52 90.5437L59.36 79.1937L63.47 73.7537L80.95 85.1237ZM48.39 104.444C48.462 104.014 48.4988 103.579 48.5 103.144C48.4987 102.44 48.4148 101.738 48.25 101.054L66.65 93.5937L78.8 110.494C78.0323 111.238 77.4055 112.116 76.95 113.084L48.39 104.444ZM84.86 123.034C83.6239 123.034 82.4155 122.667 81.3877 121.98C80.3599 121.294 79.5588 120.317 79.0858 119.175C78.6127 118.033 78.489 116.777 78.7301 115.564C78.9713 114.352 79.5665 113.238 80.4406 112.364C81.3147 111.49 82.4283 110.895 83.6407 110.654C84.8531 110.413 86.1098 110.536 87.2518 111.009C88.3938 111.482 89.37 112.284 90.0567 113.311C90.7435 114.339 91.11 115.548 91.11 116.784C91.11 118.441 90.4516 120.031 89.2795 121.203C88.1074 122.375 86.5176 123.034 84.86 123.034ZM102.75 106.034L91.95 111.674C90.5899 109.793 88.5406 108.528 86.25 108.154L86.55 88.7337L103.07 99.4737C102.101 101.532 101.986 103.891 102.75 106.034ZM104.43 97.3837L86.58 85.7837V85.5237L103.45 78.6937C104.115 79.8278 105.026 80.7978 106.117 81.5318C107.207 82.2658 108.449 82.7449 109.75 82.9337V94.4937C107.688 94.7899 105.801 95.8152 104.43 97.3837ZM102.51 76.3837L86.63 82.8037L86.82 70.1937L102.25 73.6237C102.25 73.8437 102.25 74.0637 102.25 74.2837C102.255 74.9881 102.342 75.6896 102.51 76.3737V76.3837ZM117.25 103.144C117.25 104.38 116.883 105.588 116.197 106.616C115.51 107.644 114.534 108.445 113.392 108.918C112.25 109.391 110.993 109.515 109.781 109.274C108.568 109.032 107.455 108.437 106.581 107.563C105.707 106.689 105.111 105.575 104.87 104.363C104.629 103.151 104.753 101.894 105.226 100.752C105.699 99.6099 106.5 98.6337 107.528 97.947C108.556 97.2602 109.764 96.8937 111 96.8937C112.657 96.8963 114.245 97.5556 115.417 98.7272C116.588 99.8987 117.247 101.487 117.25 103.144ZM111 68.0337C112.236 68.0337 113.445 68.4002 114.472 69.087C115.5 69.7737 116.301 70.7498 116.774 71.8919C117.247 73.0339 117.371 74.2906 117.13 75.503C116.889 76.7154 116.294 77.829 115.419 78.7031C114.545 79.5772 113.432 80.1724 112.219 80.4136C111.007 80.6547 109.75 80.531 108.608 80.0579C107.466 79.5849 106.49 78.7838 105.803 77.756C105.117 76.7282 104.75 75.5198 104.75 74.2837C104.75 72.6261 105.409 71.0363 106.581 69.8642C107.753 68.6921 109.342 68.0337 111 68.0337ZM104.73 68.1937C103.9 69.0545 103.253 70.0752 102.83 71.1937L86.83 67.6437L87.09 50.4637C88.202 50.318 89.2752 49.958 90.25 49.4037L104.73 68.1937ZM86 35.5337C87.2362 35.5337 88.4445 35.9002 89.4724 36.587C90.5002 37.2737 91.3012 38.2499 91.7743 39.3919C92.2473 40.5339 92.3711 41.7906 92.1299 43.003C91.8888 44.2154 91.2935 45.329 90.4195 46.2031C89.5454 47.0772 88.4317 47.6724 87.2194 47.9136C86.007 48.1547 84.7503 48.031 83.6083 47.5579C82.4662 47.0849 81.4901 46.2838 80.8034 45.256C80.1166 44.2282 79.75 43.0198 79.75 41.7837C79.75 40.1261 80.4085 38.5363 81.5806 37.3642C82.7527 36.1921 84.3424 35.5337 86 35.5337ZM78.48 46.2837C78.8477 46.9034 79.2874 47.4773 79.79 47.9937L68.09 63.4637L52.25 59.9437C52.25 59.7237 52.25 59.5037 52.25 59.2837C52.2488 58.5613 52.1547 57.8421 51.97 57.1437L78.48 46.2837ZM51.67 62.3837L66.44 65.6637L62.88 70.3837L51.43 62.9437C51.5202 62.7615 51.6004 62.5746 51.67 62.3837ZM61.37 72.3837L57.83 77.0737L49.57 65.5737C49.74 65.4037 49.91 65.2237 50.07 65.0437L61.37 72.3837ZM37.25 59.2837C37.25 58.0475 37.6166 56.8392 38.3034 55.8113C38.9901 54.7835 39.9662 53.9825 41.1083 53.5094C42.2503 53.0364 43.507 52.9126 44.7194 53.1538C45.9317 53.3949 47.0454 53.9902 47.9195 54.8642C48.7935 55.7383 49.3888 56.852 49.6299 58.0643C49.8711 59.2767 49.7473 60.5334 49.2743 61.6754C48.8012 62.8175 48.0002 63.7936 46.9724 64.4803C45.9445 65.1671 44.7362 65.5337 43.5 65.5337C41.8424 65.5337 40.2527 64.8752 39.0806 63.7031C37.9085 62.531 37.25 60.9413 37.25 59.2837ZM46 103.144C46 104.38 45.6335 105.588 44.9467 106.616C44.26 107.644 43.2838 108.445 42.1418 108.918C40.9998 109.391 39.7431 109.515 38.5307 109.274C37.3183 109.032 36.2047 108.437 35.3306 107.563C34.4565 106.689 33.8613 105.575 33.6201 104.363C33.379 103.151 33.5027 101.894 33.9758 100.752C34.4488 99.6099 35.2499 98.6337 36.2777 97.947C37.3055 97.2602 38.5139 96.8937 39.75 96.8937C41.4068 96.8963 42.995 97.5556 44.1665 98.7272C45.3381 99.8987 45.9974 101.487 46 103.144Z" fill="black"/>
</svg>
