<svg width="100" height="125" viewBox="0 0 100 125" fill="none" xmlns="http://www.w3.org/2000/svg">
<path d="M47.7491 42.7922C41.4911 39.9432 34.2961 38.4392 26.9431 38.4392C19.5941 38.4392 12.4011 39.9442 6.1401 42.7912C5.6841 42.9982 5.4831 43.5362 5.6901 43.9912C5.8951 44.4462 6.4321 44.6462 6.8901 44.4412C12.9171 41.7002 19.8501 40.2522 26.9421 40.2522C34.0381 40.2522 40.9721 41.7022 46.9971 44.4432C47.1191 44.4982 47.2471 44.5242 47.3721 44.5242C47.7161 44.5242 48.0451 44.3282 48.1971 43.9932C48.4061 43.5372 48.2041 42.9992 47.7491 42.7922ZM32.2901 42.2402C32.1111 41.7712 31.5921 41.5392 31.1221 41.7122C30.6531 41.8892 30.4171 42.4132 30.5941 42.8802C32.5261 47.9872 37.6011 61.6812 37.9041 63.6712C38.1021 64.9862 37.9551 65.9422 37.4631 66.5142C36.9781 67.0792 36.0791 67.3662 34.7901 67.3662H19.0961C17.8071 67.3662 16.9081 67.0792 16.4231 66.5142C15.9311 65.9422 15.7841 64.9842 15.9841 63.6712C16.2871 61.6812 21.3621 47.9872 23.2921 42.8802C23.4691 42.4112 23.2321 41.8892 22.7651 41.7122C22.2921 41.5382 21.7721 41.7702 21.5961 42.2402C20.8791 44.1382 14.5781 60.8572 14.1921 63.4002C13.9091 65.2612 14.1961 66.7052 15.0471 67.6972C15.8931 68.6812 17.2551 69.1812 19.0961 69.1812H34.7901C36.6311 69.1812 37.9931 68.6822 38.8391 67.6992C39.6911 66.7082 39.9791 65.2632 39.6961 63.4002C39.3101 60.8572 33.0071 44.1372 32.2901 42.2402ZM26.9441 36.4592C30.9451 36.4592 34.1991 33.2052 34.1991 29.2042C34.1991 25.2032 30.9451 21.9492 26.9441 21.9492C22.9431 21.9492 19.6891 25.2032 19.6891 29.2042C19.6891 33.2052 22.9431 36.4592 26.9441 36.4592ZM26.9441 23.7622C29.9451 23.7622 32.3861 26.2032 32.3861 29.2042C32.3861 32.2052 29.9451 34.6462 26.9441 34.6462C23.9431 34.6462 21.5021 32.2052 21.5021 29.2042C21.5021 26.2032 23.9431 23.7622 26.9441 23.7622ZM22.8721 70.2332C22.3711 70.2332 21.9651 70.6382 21.9651 71.1392V79.2922C21.9651 79.7932 22.3701 80.1982 22.8721 80.1982C23.3731 80.1982 23.7781 79.7932 23.7781 79.2922V71.1392C23.7781 70.6382 23.3731 70.2332 22.8721 70.2332ZM31.5771 70.2332C31.0761 70.2332 30.6701 70.6382 30.6701 71.1392V79.2922C30.6701 79.7932 31.0751 80.1982 31.5771 80.1982C32.0781 80.1982 32.4831 79.7932 32.4831 79.2922V71.1392C32.4831 70.6382 32.0781 70.2332 31.5771 70.2332ZM73.3551 36.4592C77.3561 36.4592 80.6121 33.2052 80.6121 29.2042C80.6121 25.2032 77.3561 21.9492 73.3551 21.9492C69.3541 21.9492 66.1001 25.2032 66.1001 29.2042C66.1001 33.2052 69.3531 36.4592 73.3551 36.4592ZM73.3551 23.7622C76.3581 23.7622 78.7991 26.2032 78.7991 29.2042C78.7991 32.2052 76.3581 34.6462 73.3551 34.6462C70.3541 34.6462 67.9131 32.2052 67.9131 29.2042C67.9131 26.2032 70.3541 23.7622 73.3551 23.7622ZM94.1601 42.7922C87.9001 39.9432 80.7051 38.4392 73.3531 38.4392C66.0041 38.4392 58.8111 39.9442 52.5511 42.7912C52.0961 42.9982 51.8941 43.5362 52.1011 43.9912C52.3101 44.4492 52.8451 44.6482 53.3011 44.4412C59.3271 41.7002 66.2601 40.2522 73.3521 40.2522C80.4481 40.2522 87.3821 41.7022 93.4091 44.4432C93.5311 44.4982 93.6591 44.5242 93.7841 44.5242C94.1281 44.5242 94.4571 44.3282 94.6091 43.9932C94.8171 43.5372 94.6151 42.9992 94.1601 42.7922ZM80.5421 43.4702C80.0591 43.4502 79.6041 43.7902 79.5561 44.2902L77.6921 64.4102H69.4211L67.5571 44.2902C67.5111 43.7892 67.0591 43.4472 66.5711 43.4702C66.0721 43.5162 65.7051 43.9592 65.7511 44.4562L67.6881 65.3632V79.2922C67.6881 79.7932 68.0931 80.1982 68.5941 80.1982C69.0951 80.1982 69.5001 79.7932 69.5001 79.2922V66.2232H77.6531V79.2922C77.6531 79.7932 78.0581 80.1982 78.5601 80.1982C79.0611 80.1982 79.4661 79.7932 79.4661 79.2922V65.3172C79.4661 65.2732 79.4471 65.2362 79.4411 65.1932L81.3621 44.4562C81.4081 43.9592 81.0421 43.5162 80.5421 43.4702Z" fill="black"/>
</svg>
