<svg width="100" height="125" viewBox="0 0 100 125" fill="none" xmlns="http://www.w3.org/2000/svg">
<path d="M77.8759 39.0492C75.9509 39.0492 74.0969 39.3482 72.3539 39.8972C71.9089 38.1082 71.5819 36.3822 71.4459 34.8282C71.3589 33.8402 71.2629 33.0922 71.1609 32.5202V28.4832H71.1539V28.1132H71.0609V27.8122C72.8879 27.6572 74.9819 27.4882 76.3359 27.9692C78.1189 28.4972 78.0099 29.7942 78.0099 29.7942C77.8779 31.8322 74.3109 31.8322 74.3109 31.8322C74.3109 31.8322 74.3619 32.9092 74.7299 32.8772C77.7929 32.8312 79.6679 30.4962 78.9409 28.7792C78.2499 27.1472 75.6919 26.7012 72.8999 26.7382C72.2419 26.7322 71.6189 26.7552 71.0609 26.7962V26.4062C70.0159 26.8242 69.3879 26.4062 69.3879 26.4062V28.1142H69.3289V28.4842H69.3019V30.9612H40.6669V29.1392H40.6819C40.6919 29.0962 40.6839 29.0202 40.6669 28.9292V28.7832H40.6349C40.4059 27.8762 39.4549 25.7372 39.3519 25.5072H44.4319L44.8149 24.6812H43.6669C43.6669 24.6812 40.6209 23.9922 37.7319 23.1322C34.9559 22.3062 32.5629 24.2682 32.5629 24.2682L34.6689 25.5072H37.8869C38.9209 26.1812 38.9129 28.0082 38.8589 28.7832H38.8099V30.9612H38.3049V32.7062L31.3259 41.8532C28.5029 40.0862 25.1769 39.0492 21.6009 39.0492C11.4509 39.0492 3.2229 47.2772 3.2229 57.4272C3.2229 67.5762 11.4509 75.8052 21.6009 75.8052C31.5129 75.8052 39.5699 67.9522 39.9439 58.1322H46.3169C46.6739 60.0292 48.3339 61.4672 50.3359 61.4672C50.3409 61.4672 50.3459 61.4652 50.3519 61.4652L50.8979 64.4592L50.4769 64.4992L50.5449 66.4262L53.7109 66.1522L51.9219 64.3622L51.7189 64.3822C51.6789 63.9852 51.5489 62.6942 51.4169 61.3052C53.1499 60.8282 54.4309 59.2572 54.4309 57.3732C54.4309 56.4232 54.0949 55.5602 53.5519 54.8652L69.3019 34.2202V34.3682H69.3229C69.1809 35.0702 69.0939 35.6062 69.0939 35.6062C69.0939 35.6062 69.0459 37.0802 70.3099 40.6902C63.9389 43.5762 59.4969 49.9762 59.4969 57.4262C59.4969 67.5752 67.7259 75.8042 77.8759 75.8042C88.0259 75.8042 96.2539 67.5752 96.2539 57.4262C96.2539 47.2772 88.0259 39.0492 77.8759 39.0492ZM37.6799 56.3612H22.8379C22.7259 56.1482 22.5799 55.9602 22.4019 55.8002L31.0949 44.4052C34.8429 47.1432 37.3579 51.4462 37.6799 56.3612ZM21.6009 73.5602C12.6909 73.5602 5.4689 66.3372 5.4689 57.4282C5.4689 48.5182 12.6919 41.2952 21.6009 41.2952C24.6639 41.2952 27.5179 42.1652 29.9569 43.6472L21.0819 55.2782C21.0709 55.2782 21.0609 55.2752 21.0499 55.2752C19.9289 55.2752 19.0199 56.1832 19.0199 57.3052C19.0199 58.4272 19.9289 59.3352 21.0499 59.3352C21.8759 59.3352 22.5839 58.8402 22.9009 58.1322H37.6969C37.3259 66.7132 30.2719 73.5602 21.6009 73.5602ZM22.2799 56.0352L22.1129 56.3612H21.9739L22.1869 56.0832L22.2799 56.0352ZM19.5149 58.0732L19.8819 57.6352L19.3169 57.5452L19.9869 57.2032L19.5279 56.8692H19.9139L20.0549 57.1692L19.9879 57.2032L20.1129 57.2942L20.1319 57.3342L19.8819 57.6352L20.3029 57.7022L20.3619 57.8272L20.3499 57.8642L20.3759 57.8572L20.5499 58.2302L20.6329 58.1222L20.6509 58.2322L20.7869 58.1322H20.9809L21.1089 58.3362L21.2129 58.1322H21.2679L21.4629 58.2742L21.4729 58.1322H21.7919L21.9529 58.6312L21.4629 58.2742L21.4259 58.8372L21.1099 58.3362L20.7719 58.9982L20.6509 58.2322L20.1009 58.6302L20.3509 57.8622L19.5149 58.0732ZM20.3129 56.2882L20.0419 56.6422L19.6519 56.0222L20.3129 56.2882ZM20.2499 55.7142L20.5339 55.9982L20.3359 56.2582L20.2499 55.7142ZM49.7689 60.7862L49.5239 59.2402L48.4149 60.0472L48.9179 58.4962L47.2369 58.9232L47.8939 58.1332H48.5889L49.0129 58.2002L49.0349 58.1332H49.0799C49.0959 58.1612 49.1079 58.1932 49.1259 58.2182L49.0149 58.2002L48.9179 58.4962L49.2809 58.4042C49.3209 58.4482 49.3649 58.4852 49.4109 58.5232L49.5249 59.2402L49.8969 58.9702L50.1079 60.1232L49.7689 60.7862ZM48.7199 54.1622L49.0919 54.5342C49.1499 54.8672 49.2049 55.1862 49.2549 55.4822L48.9069 55.3422L49.0679 56.3612H48.5059L47.5139 54.7852L48.9069 55.3422L48.7199 54.1622ZM50.8359 56.0002C50.8029 55.9882 50.7679 55.9782 50.7319 55.9682L50.7099 55.8842L50.7859 55.8442L50.5109 54.9972L50.4799 55.0352L50.2819 54.3062L50.2849 54.2962L50.5119 54.9962L51.5359 53.7682L51.4269 55.4002L51.2809 55.5922L50.7879 55.8422L50.8359 56.0002ZM53.7409 57.2782L52.2199 57.6632L53.4619 58.9042L51.6889 58.6242L52.1519 60.0472L51.2439 59.3892C51.2269 59.1872 51.2109 58.9962 51.1959 58.8132L51.2109 58.5982C51.2289 58.5852 51.2429 58.5702 51.2609 58.5572L51.6889 58.6242L51.5659 58.2412C51.6649 58.1022 51.7359 57.9432 51.7809 57.7742L52.2199 57.6632L51.9999 57.4422L51.8169 57.5752C51.8249 57.5132 51.8359 57.4552 51.8359 57.3922C51.8359 57.3482 51.8269 57.3082 51.8239 57.2662L51.9999 57.4422L52.7629 56.8872L52.1859 56.6562L52.3109 56.4932H53.3059L52.7629 56.8872L53.7409 57.2782ZM52.5439 53.9332C51.9059 53.5232 51.1509 53.2782 50.3359 53.2782C50.2229 53.2782 50.1189 53.3022 50.0099 53.3112L49.0389 49.7432L50.1359 49.5372L49.9829 48.7242L47.1499 49.2572L47.3029 50.0692L48.7489 49.7972L48.2489 49.9282C48.2489 49.9282 48.5919 51.7382 48.9159 53.5452C47.6679 54.0082 46.7139 55.0562 46.3809 56.3612H39.9259C39.6009 50.7182 36.7409 45.7682 32.4569 42.6222L40.0009 32.7322H68.7199L52.5439 53.9332ZM77.8759 73.5602C68.9659 73.5602 61.7429 66.3372 61.7429 57.4282C61.7429 50.9382 65.5829 45.3592 71.1079 42.7982C72.4179 46.0442 74.5839 50.5312 78.1539 56.5232C77.7439 56.7862 77.4699 57.2432 77.4699 57.7662C77.4699 58.5832 78.1319 59.2462 78.9489 59.2462C79.7669 59.2462 80.4279 58.5832 80.4279 57.7662C80.4279 56.9502 79.7669 56.2872 78.9489 56.2872C78.7399 56.2872 78.5429 56.3302 78.3629 56.4072C77.0349 53.4602 74.5579 47.6662 72.9369 42.0722C74.4949 41.5722 76.1509 41.2952 77.8749 41.2952C86.7849 41.2952 94.0069 48.5182 94.0069 57.4282C94.0079 66.3372 86.7859 73.5602 77.8759 73.5602ZM78.4249 56.9772C78.4399 56.9992 78.4529 57.0242 78.4679 57.0472L78.4339 57.0332L78.6869 57.4082C78.7379 57.4912 78.7889 57.5762 78.8399 57.6602C78.8179 57.6862 78.7999 57.7182 78.7999 57.7552C78.7999 57.8402 78.8689 57.9092 78.9549 57.9092C78.9669 57.9092 78.9729 57.9002 78.9819 57.8972C79.0429 57.9952 79.0989 58.0892 79.1589 58.1872L79.2579 58.3392L79.2569 58.3482C79.2659 58.3632 79.2729 58.3762 79.2819 58.3912C79.2819 58.3912 79.2719 58.3712 79.2579 58.3392L79.1799 58.1772C79.1429 58.0992 79.0949 57.9952 79.0369 57.8742C79.0789 57.8472 79.1089 57.8082 79.1089 57.7542C79.1089 57.6682 79.0409 57.5992 78.9549 57.5992C78.9399 57.5992 78.9309 57.6112 78.9169 57.6152C78.8639 57.5012 78.8059 57.3752 78.7419 57.2362L78.6969 57.1382C78.6429 57.0212 78.5879 56.8992 78.5269 56.7682L78.8039 57.0452L78.9309 56.6542L79.0129 56.9072L79.3829 56.4652L79.3399 57.0972L79.8449 56.8402L79.5349 57.4482H80.0219L79.8259 57.5912L80.1789 57.7322L79.6299 57.8712L80.0789 58.3202L79.4379 58.2182L79.6049 58.7322L79.2469 58.4722L79.2209 58.8822L78.9909 58.5172L78.7449 59.0002L78.6579 58.4402L78.2559 58.7322L78.4399 58.1722L77.8319 58.3252L78.0989 58.0052L77.6869 57.9412L78.1759 57.6912L77.8409 57.4492H78.3199L77.9309 56.8322L78.4339 57.0332L78.4249 56.9772Z" fill="black"/>
</svg>
