<svg width="100" height="125" viewBox="0 0 100 125" fill="none" xmlns="http://www.w3.org/2000/svg">
<path d="M87.37 45.87V24.06L49.5 3.79004L12.63 24.07V46.37C12.6276 56.4439 15.569 66.299 21.0924 74.7236C26.6159 83.1482 34.4807 89.7753 43.72 93.79L49.3 96.22L55.61 93.58C65.0287 89.6599 73.0734 83.0347 78.7266 74.5424C84.3799 66.05 87.3878 56.0719 87.37 45.87ZM54.07 89.87L49.33 91.87L45.33 90.13C36.8012 86.4277 29.5406 80.313 24.4416 72.5383C19.3425 64.7635 16.6273 55.6678 16.63 46.37V26.44L49.53 8.34004L83.37 26.45V45.87C83.3848 55.2808 80.6092 64.4847 75.394 72.3183C70.1787 80.1518 62.758 86.2632 54.07 89.88V89.87Z" fill="black"/>
<path d="M44.88 57.6899L32.69 45.4999L29.86 48.3299L44.81 63.2799L70.15 39.0899L67.38 36.1899L44.88 57.6899Z" fill="black"/>
</svg>
