<?xml version="1.0" encoding="UTF-8"?>
<svg width="180px" height="180px" viewBox="0 0 180 180" version="1.1" xmlns="http://www.w3.org/2000/svg" xmlns:xlink="http://www.w3.org/1999/xlink">
    <!-- Generator: Sketch 52.2 (67145) - http://www.bohemiancoding.com/sketch -->
    <title>icon large / safe</title>
    <desc>Created with Sketch.</desc>
    <defs>
        <polygon id="path-1" points="0 90 140 90 140 0 0 0"></polygon>
    </defs>
    <g id="icon-large-/-safe" stroke="none" stroke-width="1" fill="none" fill-rule="evenodd" opacity="0.600000024">
        <g id="Group-16" transform="translate(20.000000, 45.000000)">
            <path d="M107,12 L114,12 L114,7 C114,6.448 113.553,6 113,6 L27,6 C26.447,6 26,6.448 26,7 L26,17 L59,17 C60.104,17 61,17.896 61,19 L61,51 C61,52.104 60.104,53 59,53 L55,53 L55,57 C55,58.104 54.104,59 53,59 L43,59 L43,65 L29,65 L29,59 L26,59 L26,67 C26,67.552 26.447,68 27,68 L113,68 C113.553,68 114,67.552 114,67 L114,52.811 C108.943,48.869 103,41.919 103,31 L103,16 C103,13.791 104.791,12 107,12" id="Fill-1" fill="#D9D6D2"></path>
            <mask id="mask-2" fill="white">
                <use xlink:href="#path-1"></use>
            </mask>
            <g id="Clip-4"></g>
            <path d="M30,33 L46,33 L46,32 L30,32 L30,33 Z M30,36 L46,36 L46,35 L30,35 L30,36 Z M30,39 L40,39 L40,38 L30,38 L30,39 Z M49,28 L7,28 C6.447,28 6,28.448 6,29 L6,53 C6,53.552 6.447,54 7,54 L11,54 C11,50.687 13.687,48 17,48 L17,45.858 C15.277,45.413 14,43.862 14,42 L14,37 C14,34.239 16.238,32 19,32 C21.762,32 24,34.239 24,37 L24,42 C24,43.862 22.723,45.413 21,45.858 L21,48 C24.313,48 27,50.687 27,54 L49,54 C49.553,54 50,53.552 50,53 L50,29 C50,28.448 49.553,28 49,28 Z" id="Fill-3" fill="#D9D6D2" mask="url(#mask-2)"></path>
            <path d="M135,90 L5,90 C4.447,90 4,89.553 4,89 C4,88.447 4.447,88 5,88 L135,88 C135.553,88 136,88.447 136,89 C136,89.553 135.553,90 135,90" id="Fill-5" fill="#262F40" mask="url(#mask-2)"></path>
            <path d="M86,90 C81.112,90 78.833,82.521 78.204,80 L60.796,80 C60.167,82.521 57.888,90 53,90 C52.447,90 52,89.553 52,89 C52,88.447 52.447,88 53,88 C56.43,88 58.508,81.361 59.02,78.804 L59.181,78 L79.819,78 L79.98,78.804 C80.495,81.361 82.578,88 86,88 C86.553,88 87,88.447 87,89 C87,89.553 86.553,90 86,90" id="Fill-6" fill="#262F40" mask="url(#mask-2)"></path>
            <path d="M79.5439,84 C78.8629,82.413 78.4269,80.894 78.2039,80 L60.7959,80 C60.5729,80.894 60.1369,82.413 59.4559,84 L79.5439,84 Z" id="Fill-7" fill="#D9D6D2" mask="url(#mask-2)"></path>
            <path d="M107,13 C105.346,13 104,14.346 104,16 L104,31 C104,47.63 118.5,54.802 120.999,55.913 C123.496,54.798 138,47.599 138,31 L138,16 C138,14.346 136.654,13 135,13 L107,13 Z M121,58 C120.877,58 120.754,57.978 120.638,57.932 C120.451,57.859 102,50.459 102,31 L102,16 C102,13.243 104.243,11 107,11 L135,11 C137.757,11 140,13.243 140,16 L140,31 C140,50.459 121.549,57.859 121.362,57.932 C121.246,57.978 121.123,58 121,58 Z" id="Fill-8" fill="#262F40" mask="url(#mask-2)"></path>
            <path d="M135,16 L107,16 L107,31 C107,35.144 108.003,38.621 109.497,41.503 L135,16 Z" id="Fill-9" fill="#D9D6D2" mask="url(#mask-2)"></path>
            <path d="M30,64 L42,64 L42,55 C42,54.449 41.552,54 41,54 L31,54 C30.448,54 30,54.449 30,55 L30,64 Z M43,66 L29,66 C28.447,66 28,65.552 28,65 L28,55 C28,53.346 29.346,52 31,52 L41,52 C42.654,52 44,53.346 44,55 L44,65 C44,65.552 43.553,66 43,66 Z" id="Fill-10" fill="#262F40" mask="url(#mask-2)"></path>
            <path d="M33,52 L39,52 L39,49 C39,47.346 37.654,46 36,46 C34.346,46 33,47.346 33,49 L33,52 Z M40,54 L32,54 C31.447,54 31,53.552 31,53 L31,49 C31,46.243 33.243,44 36,44 C38.757,44 41,46.243 41,49 L41,53 C41,53.552 40.553,54 40,54 Z" id="Fill-11" fill="#262F40" mask="url(#mask-2)"></path>
            <path d="M115,0 L25,0 C22.243,0 20,2.243 20,5 L20,14 L22,16 L22,5 C22,3.346 23.346,2 25,2 L115,2 C116.654,2 118,3.346 118,5 L118,12 L120,12 L120,5 C120,2.243 117.757,0 115,0" id="Fill-12" fill="#262F40" mask="url(#mask-2)"></path>
            <path d="M118,55.5005 L118,75.0005 C118,76.6545 116.654,78.0005 115,78.0005 L25,78.0005 C23.346,78.0005 22,76.6545 22,75.0005 L22,59.0005 L20,59.0005 L20,75.0005 C20,77.7565 22.243,80.0005 25,80.0005 L115,80.0005 C117.757,80.0005 120,77.7565 120,75.0005 L120,56.5545 C119.487,56.3105 118.805,55.9615 118,55.5005" id="Fill-13" fill="#262F40" mask="url(#mask-2)"></path>
            <path d="M59,16 L23.414,16 L18.707,11.293 C18.52,11.105 18.266,11 18,11 L9,11 C7.346,11 6,12.346 6,14 L6,18 L8,18 L8,14 C8,13.449 8.448,13 9,13 L17.586,13 L22.293,17.707 C22.48,17.895 22.734,18 23,18 L59,18 C59.552,18 60,18.449 60,19 L60,51 C60,51.551 59.552,52 59,52 L55,52 L55,54 L59,54 C60.654,54 62,52.654 62,51 L62,19 C62,17.346 60.654,16 59,16" id="Fill-14" fill="#262F40" mask="url(#mask-2)"></path>
            <path d="M53,22 L17.414,22 L12.707,17.293 C12.52,17.105 12.266,17 12,17 L3,17 C1.346,17 0,18.346 0,20 L0,57 C0,58.654 1.346,60 3,60 L29,60 L29,58 L3,58 C2.448,58 2,57.551 2,57 L2,20 C2,19.449 2.448,19 3,19 L11.586,19 L16.293,23.707 C16.48,23.895 16.734,24 17,24 L53,24 C53.552,24 54,24.449 54,25 L54,57 C54,57.551 53.552,58 53,58 L43,58 L43,60 L53,60 C54.654,60 56,58.654 56,57 L56,25 C56,23.346 54.654,22 53,22" id="Fill-15" fill="#262F40" mask="url(#mask-2)"></path>
        </g>
    </g>
</svg>