<?xml version="1.0" encoding="UTF-8"?>
<svg width="180px" height="180px" viewBox="0 0 180 180" version="1.1" xmlns="http://www.w3.org/2000/svg" xmlns:xlink="http://www.w3.org/1999/xlink">
    <!-- Generator: Sketch 52.2 (67145) - http://www.bohemiancoding.com/sketch -->
    <title>icon large / trust</title>
    <desc>Created with Sketch.</desc>
    <g id="icon-large-/-trust" stroke="none" stroke-width="1" fill="none" fill-rule="evenodd" opacity="0.600000024">
        <g id="Group-19" transform="translate(20.000000, 50.000000)">
            <path d="M79,48 L63,48 C63,44.687 65.687,42 69,42 L69,39.858 C67.278,39.413 66,37.862 66,36 L66,31 C66,28.239 68.239,26 71,26 C73.761,26 76,28.239 76,31 L76,36 C76,37.862 74.722,39.413 73,39.858 L73,42 C76.313,42 79,44.687 79,48 C79,44.687 81.687,42 85,42 L85,39.858 C83.278,39.413 82,37.862 82,36 L82,31 C82,28.239 84.239,26 87,26 C89.761,26 92,28.239 92,31 L92,36 C92,37.862 90.722,39.413 89,39.858 L89,42 C92.313,42 95,44.687 95,48 L79,48 Z M101,35 L101,6 L35,6 L35,68 L123,68 L123,35 L112,29 L101,35 Z" id="Fill-1" fill="#D9D6D2"></path>
            <path d="M7,16 C4.243,16 2,18.243 2,21 L2,73 C2,75.757 4.243,78 7,78 L29,78 C31.757,78 34,75.757 34,73 L34,21 C34,18.243 31.757,16 29,16 L7,16 Z M29,80 L7,80 C3.14,80 0,76.859 0,73 L0,21 C0,17.14 3.14,14 7,14 L29,14 C32.86,14 36,17.14 36,21 L36,73 C36,76.859 32.86,80 29,80 Z" id="Fill-3" fill="#262F40"></path>
            <path d="M15,73 C15,71.343 16.343,70 18,70 C19.657,70 21,71.343 21,73 C21,74.657 19.657,76 18,76 C16.343,76 15,74.657 15,73" id="Fill-5" fill="#D9D6D2"></path>
            <path d="M21,20 L15,20 C14.448,20 14,19.552 14,19 C14,18.448 14.448,18 15,18 L21,18 C21.552,18 22,18.448 22,19 C22,19.552 21.552,20 21,20" id="Fill-7" fill="#D9D6D2"></path>
            <path d="M112,28 C112.165,28 112.33,28.041 112.479,28.122 L122,33.315 L122,2 L102,2 L102,33.315 L111.521,28.122 C111.67,28.041 111.835,28 112,28 M123,36 C122.835,36 122.671,35.959 122.521,35.878 L112,30.139 L101.479,35.878 C101.168,36.046 100.792,36.039 100.49,35.86 C100.186,35.68 100,35.353 100,35 L100,1 C100,0.448 100.448,0 101,0 L123,0 C123.553,0 124,0.448 124,1 L124,35 C124,35.353 123.813,35.68 123.511,35.86 C123.354,35.953 123.177,36 123,36" id="Fill-9" fill="#262F40"></path>
            <path d="M109.5,20 C109.244,20 108.988,19.902 108.793,19.707 L105.293,16.207 C104.902,15.816 104.902,15.184 105.293,14.793 C105.684,14.402 106.316,14.402 106.707,14.793 L109.5,17.586 L117.293,9.793 C117.684,9.402 118.316,9.402 118.707,9.793 C119.098,10.184 119.098,10.816 118.707,11.207 L110.207,19.707 C110.012,19.902 109.756,20 109.5,20" id="Fill-11" fill="#262F40"></path>
            <path d="M10,50 C10,46.687 12.687,44 16,44 L16,41.858 C14.278,41.413 13,39.862 13,38 L13,33 C13,30.239 15.239,28 18,28 C20.761,28 23,30.239 23,33 L23,38 C23,39.862 21.722,41.413 20,41.858 L20,44 C23.313,44 26,46.687 26,50 L10,50 Z M10,56 L26,56 L26,55 L10,55 L10,56 Z M10,59 L26,59 L26,58 L10,58 L10,59 Z M10,62 L20,62 L20,61 L10,61 L10,62 Z M30,22 L6,22 C4.896,22 4,22.896 4,24 L4,68 L32,68 L32,24 C32,22.896 31.104,22 30,22 Z" id="Fill-13" fill="#D9D6D2"></path>
            <path d="M124,0 L34,0 C31.243,0 29,2.243 29,5 L29,15 C29.702,15 30.374,15.127 31,15.349 L31,5 C31,3.346 32.346,2 34,2 L124,2 C125.654,2 127,3.346 127,5 L127,71 L129,71 L129,5 C129,2.243 126.757,0 124,0" id="Fill-15" fill="#262F40"></path>
            <path d="M137,70 L88.858,70 C88.403,70 88.004,70.309 87.89,70.749 C87.547,72.074 86.359,73 85,73 L73,73 C71.641,73 70.453,72.074 70.11,70.749 C69.996,70.309 69.597,70 69.142,70 L35,70 L35,72 L68.432,72 C69.215,73.799 70.997,75 73,75 L85,75 C87.003,75 88.785,73.799 89.568,72 L137,72 C137.552,72 138,72.448 138,73 C138,75.757 135.757,78 133,78 L32.314,78 C31.364,78.631 30.226,79 29,79 L21.413,79 C22.464,79.631 23.688,80 25,80 L133,80 C136.859,80 140,76.859 140,73 C140,71.346 138.654,70 137,70" id="Fill-17" fill="#262F40"></path>
        </g>
    </g>
</svg>