<svg width="76" height="88" viewBox="0 0 76 88" fill="none" xmlns="http://www.w3.org/2000/svg">
<path fill-rule="evenodd" clip-rule="evenodd" d="M9.38705 52.9691C9.92221 53.473 9.94564 54.3129 9.44174 54.8519L8.24644 56.1175C7.98472 56.3987 7.63316 56.5315 7.27769 56.5315C6.94957 56.5315 6.62535 56.4182 6.36753 56.1721C5.83237 55.6682 5.80894 54.8283 6.31284 54.301L7.50814 53.0238C8.01205 52.4964 8.85195 52.4652 9.38705 52.9691ZM3.55895 61.6332C2.88707 61.3402 2.57849 60.559 2.87537 59.8832L3.49645 58.4691C3.78942 57.7972 4.57456 57.4925 5.24646 57.7855C5.91834 58.0785 6.22693 58.8597 5.93005 59.5355L5.31285 60.9496C5.0941 61.4535 4.60582 61.7465 4.09405 61.7465C3.91436 61.7465 3.73473 61.7113 3.55895 61.6332ZM3.21912 67.2934C2.48474 67.2934 1.89101 66.6996 1.89101 65.9614V64.4926C1.89101 63.7621 2.48476 63.1684 3.21912 63.1684C3.95347 63.1684 4.54721 63.7621 4.54721 64.4926V65.9614C4.54721 66.6997 3.94956 67.2934 3.21912 67.2934ZM5.24252 72.6645C5.07064 72.7426 4.88705 72.7777 4.71127 72.7777C4.19955 72.7777 3.71126 72.4848 3.49246 71.9809L2.87137 70.5668C2.5784 69.8949 2.88309 69.1098 3.55496 68.8168C4.22683 68.5238 5.01197 68.8285 5.30497 69.5004L5.92215 70.9145C6.22293 71.5863 5.91439 72.3715 5.24252 72.6645ZM9.44172 75.6098C9.94563 76.1371 9.91827 76.977 9.38703 77.4809C9.12922 77.727 8.80109 77.8402 8.47687 77.8402C8.12531 77.8402 7.76984 77.7074 7.50812 77.4262L6.31282 76.1606C5.80891 75.6215 5.83626 74.7817 6.36751 74.2778C6.90267 73.7856 7.74251 73.8051 8.24641 74.3325L9.44172 75.6098ZM15.3831 81.5082C15.1331 81.9222 14.6956 82.1488 14.2503 82.1488C14.012 82.1488 13.7738 82.0824 13.5589 81.9457L11.8675 80.9145C11.2425 80.5317 11.0472 79.7153 11.43 79.0864C11.8128 78.4575 12.6331 78.27 13.2581 78.6489L14.9495 79.6801C15.5706 80.0629 15.7659 80.8793 15.3831 81.5082ZM22.8948 84.4887C22.7034 85.0395 22.1917 85.3754 21.6448 85.3754C21.4964 85.3754 21.3479 85.352 21.2034 85.2973L19.1331 84.5668C18.4417 84.3207 18.0784 83.5707 18.3245 82.8754C18.5706 82.1801 19.3284 81.8207 20.0198 82.0668L22.0901 82.7973C22.7776 83.0434 23.1409 83.8051 22.8948 84.4887ZM31.4651 86.2153C31.3596 86.8637 30.7971 87.3247 30.1565 87.3247C30.0862 87.3247 30.012 87.3247 29.9417 87.313L27.6292 86.9301C26.9065 86.8051 26.4144 86.1215 26.5354 85.4067C26.6565 84.6763 27.3362 84.1958 28.0627 84.309L30.3752 84.6918C31.0939 84.8168 31.5823 85.5005 31.4651 86.2153ZM40.5237 86.5082C40.5393 87.2465 39.9573 87.852 39.2229 87.8637C38.8049 87.8755 38.4026 87.8755 38.0002 87.8755C37.5978 87.8755 37.1916 87.8755 36.7775 87.8637C36.0431 87.852 35.4611 87.2465 35.4767 86.5082C35.4923 85.7778 36.1017 85.1957 36.8322 85.2074C37.6291 85.2309 38.3713 85.2309 39.1681 85.2074C39.9025 85.1957 40.508 85.7777 40.5237 86.5082ZM49.469 85.4105C49.5901 86.1293 49.0979 86.8128 48.3752 86.9339L46.0627 87.3167C45.9885 87.3285 45.9182 87.3285 45.8479 87.3285C45.2073 87.3285 44.6448 86.8675 44.5393 86.2191C44.4221 85.5003 44.9104 84.8168 45.6331 84.6957L47.9456 84.3129C48.6682 84.1996 49.3518 84.68 49.469 85.4105ZM57.6799 82.8753C57.926 83.5706 57.5627 84.3206 56.8713 84.5667L54.801 85.2972C54.6526 85.3519 54.5041 85.3753 54.3596 85.3753C53.8127 85.3753 53.301 85.0394 53.1096 84.4886C52.8635 83.805 53.2268 83.0433 53.9182 82.7972L55.9885 82.0667C56.676 81.8207 57.4338 82.18 57.6799 82.8753ZM64.5744 79.0862C64.9572 79.7151 64.7619 80.5315 64.1369 80.9143L62.4455 81.9455C62.2307 82.0784 61.9885 82.1487 61.7541 82.1487C61.3088 82.1487 60.8713 81.926 60.6213 81.508C60.2385 80.8791 60.4338 80.0627 61.0588 79.6799L62.7502 78.6487C63.3713 78.2698 64.1916 78.4573 64.5744 79.0862ZM69.633 74.2776C70.1682 74.7816 70.1916 75.6214 69.6877 76.1604L68.4924 77.426C68.2307 77.7073 67.8791 77.8401 67.5237 77.8401C67.1955 77.8401 66.8713 77.7268 66.6135 77.4807C66.0783 76.9768 66.0549 76.1369 66.5588 75.6096L67.7541 74.3323C68.258 73.805 69.0979 73.7854 69.633 74.2776ZM73.1252 70.5667L72.5041 71.9808C72.2854 72.4847 71.7971 72.7777 71.2853 72.7777C71.1056 72.7777 70.9259 72.7426 70.7541 72.6644C70.0822 72.3715 69.7775 71.5902 70.0705 70.9144L70.6916 69.5003C70.9845 68.8285 71.7697 68.5238 72.4416 68.8167C73.1135 69.1097 73.4182 69.8948 73.1252 70.5667ZM74.1096 64.4925V65.9613C74.1096 66.6996 73.5158 67.2933 72.7815 67.2933C72.0471 67.2933 71.4534 66.6996 71.4534 65.9613V64.4925C71.4534 63.7621 72.0471 63.1683 72.7815 63.1683C73.5158 63.1683 74.1096 63.7621 74.1096 64.4925ZM70.0705 59.5355C69.7775 58.8637 70.0822 58.0785 70.7541 57.7855C71.426 57.4926 72.2111 57.7973 72.5041 58.4691L73.1252 59.8832C73.4181 60.5551 73.1135 61.3402 72.4416 61.6332C72.2697 61.7114 72.0861 61.7465 71.9103 61.7465C71.3986 61.7465 70.9103 61.4535 70.6915 60.9496L70.0705 59.5355ZM69.6877 54.3011C70.1916 54.8285 70.1642 55.6683 69.633 56.1722C69.3752 56.4183 69.051 56.5316 68.7228 56.5316C68.3713 56.5316 68.0158 56.3988 67.7541 56.1176L66.5588 54.852C66.0549 54.3129 66.0822 53.4731 66.6135 52.9692C67.1486 52.4652 67.9885 52.4965 68.4924 53.0238L69.6877 54.3011ZM72.6604 27.8241C72.8518 27.4882 72.7502 27.0624 72.4221 26.8476L72.2659 26.746C71.9299 26.5234 71.4729 26.6132 71.2425 26.9374C69.598 29.3241 67.762 31.6132 65.7855 33.7304C63.8402 35.8163 61.5199 38.3046 58.4378 39.5468C57.8245 39.8593 57.1487 40.0742 56.4378 40.1523C56.2346 40.1953 56.0276 40.2304 55.8167 40.2539C55.1448 40.3554 54.5237 40.3984 53.9534 40.3984C50.3128 40.3984 48.5432 38.6172 46.2151 36.2851L40.7034 30.7695C40.5588 30.625 40.3752 30.5468 40.176 30.5468H40.1721C39.9768 30.5468 39.7893 30.625 39.6448 30.7695L39.5432 30.8828C39.2932 31.1289 39.2542 31.4882 39.4417 31.789C39.9104 32.5507 40.3713 33.2695 40.8167 33.9648C43.8479 38.6836 46.2425 42.4179 46.2112 49.2538C46.1877 54.5468 44.4534 61.7418 42.9221 68.0978C42.5744 69.5314 42.2463 70.8986 41.9533 72.1798C41.9103 72.3712 42.0314 72.5704 42.2228 72.6173L42.5002 72.6954C42.676 72.7384 42.8322 72.672 42.9221 72.5158L50.6916 58.6058C50.9337 58.18 51.383 57.9339 51.8518 57.9339C51.9963 57.9339 52.1408 57.9573 52.2814 58.0003C52.8869 58.2151 53.2619 58.8167 53.1643 59.4573L51.1135 72.9773C51.0822 73.1921 51.1721 73.3367 51.2267 73.4031C51.2814 73.4812 51.4103 73.5945 51.6252 73.6179L51.9377 73.6413C52.1916 73.6531 52.3947 73.5281 52.4924 73.2937C55.8401 65.0984 58.6877 56.5667 61.2033 47.1957C61.5665 45.8519 62.0822 44.7309 62.8752 43.5863C66.3205 38.6097 69.6096 33.3051 72.6604 27.8241ZM36.5554 31.7929C36.7429 31.4922 36.7038 31.1328 36.4538 30.8867L36.3523 30.7734C36.2077 30.6289 36.0241 30.5507 35.8249 30.5507H35.821C35.6257 30.5507 35.4382 30.6289 35.2976 30.7734L29.7859 36.289C27.0945 38.9921 25.1492 40.9413 20.1843 40.2578C19.9733 40.2344 19.7663 40.2031 19.5632 40.1562C18.8522 40.0781 18.1765 39.8633 17.5632 39.5508C14.4812 38.3047 12.157 35.8164 10.2155 33.7344C8.23889 31.6172 6.40299 29.3282 4.75849 26.9414C4.61396 26.7383 4.37958 26.6289 4.14521 26.6289C4.00459 26.6289 3.86005 26.664 3.73505 26.7539L3.5788 26.8554C3.25068 27.0703 3.14911 27.4961 3.34052 27.832C6.39132 33.3125 9.68432 38.617 13.1178 43.594C13.9108 44.7385 14.4264 45.8596 14.7897 47.2034C17.3053 56.5745 20.153 65.1054 23.5006 73.3014C23.5983 73.5358 23.8014 73.6608 24.0553 73.6491L24.3678 73.6256C24.5826 73.6022 24.7116 73.4928 24.7662 73.4108C24.8209 73.3444 24.9108 73.1959 24.8795 72.985L22.8287 59.465C22.7311 58.8244 23.1022 58.2189 23.7115 58.008C24.3209 57.8049 24.9888 58.051 25.3013 58.6135L33.0708 72.5235C33.1607 72.6797 33.3169 72.7461 33.4888 72.7032L33.7661 72.625C33.9615 72.5821 34.0826 72.3789 34.0357 72.1875C33.7427 70.9102 33.4146 69.543 33.0669 68.1055C31.5357 61.75 29.8052 54.5545 29.7778 49.2615C29.7466 42.4217 32.1411 38.6915 35.1723 33.9725C35.6215 33.2733 36.0866 32.5546 36.5554 31.7929ZM5.79338 23.957C8.19178 24.1797 10.227 24.082 12.0239 23.6758C17.1255 22.5117 18.3286 19.7305 19.852 16.211C20.0864 15.6719 20.3325 15.1016 20.6059 14.5196L23.8247 7.54689C24.1606 8.20705 24.5005 8.89069 24.8403 9.58599C22.9965 16.5587 21.7387 22.297 21.2544 28.352C20.9263 28.2856 20.5903 28.2621 20.2466 28.2621C16.9927 28.2621 14.3443 30.8754 14.2818 34.1137C13.5357 33.395 12.8326 32.6449 12.1568 31.9184C10.2701 29.8911 8.5162 27.7153 6.9459 25.4379C6.53184 24.8325 5.94589 24.4067 5.30139 24.184C5.32093 24.1489 5.34046 24.1294 5.35608 24.1176C5.42249 24.0473 5.57072 23.9336 5.79338 23.957ZM12.5551 13.789C10.7309 13.789 9.24259 15.2812 9.24259 17.1054C9.24259 18.9218 10.727 20.414 12.5551 20.414C13.2387 20.414 13.8754 20.1992 14.4067 19.8554C14.4067 19.8437 14.4067 19.8437 14.4106 19.8437C14.4301 19.832 14.4497 19.8203 14.4692 19.8086C14.5707 19.7304 14.6645 19.6523 14.7582 19.5742C15.4379 18.9687 15.8715 18.082 15.8715 17.1094C15.8676 15.2813 14.3793 13.789 12.5551 13.789ZM23.8361 29.461C24.1837 24.1602 25.1642 19.137 26.6252 13.285C28.344 16.9608 29.8557 20.66 30.4768 23.855C30.883 25.9409 31.1604 28.2847 31.3244 30.9839L27.8986 34.4136C27.1057 35.2105 26.4455 35.8589 25.8048 36.3863C26.0666 35.7145 26.2111 34.984 26.2111 34.2222C26.215 32.2847 25.2775 30.5469 23.8361 29.461ZM18.6603 37.129C17.633 36.5704 16.9337 35.4806 16.9337 34.2267C16.9337 32.3986 18.4181 30.9181 20.2462 30.9181C22.0704 30.9181 23.5587 32.3986 23.5587 34.2267C23.5587 36.0548 22.0743 37.5431 20.2462 37.5431C20.1485 37.5431 20.0509 37.5314 19.9532 37.5197C19.5079 37.4299 19.0744 37.297 18.6603 37.129ZM24.8283 3.16404C24.8634 3.0742 24.9572 2.91795 25.172 2.85154L25.2853 2.81638C25.547 2.72654 25.8127 2.8281 25.9455 3.07419C27.9689 6.70699 30.3244 9.63279 32.9377 11.75C35.9182 14.1836 40.0822 14.1836 43.0627 11.75C45.676 9.63279 48.0275 6.70699 50.0549 3.07419C50.1642 2.87107 50.3439 2.78122 50.5861 2.79294C50.7892 2.80466 51.0627 2.90622 51.1721 3.16403C51.2424 3.332 51.2385 3.46481 51.1603 3.62497C50.7307 4.51169 50.2775 5.41797 49.8126 6.34767C47.0587 11.8633 43.9415 18.1057 42.9181 23.3517C42.6056 24.9455 42.3674 26.6603 42.1955 28.5626C41.6135 28.1251 40.9182 27.8907 40.1838 27.8907H40.1721C39.3713 27.9024 38.6135 28.1837 38.0041 28.6876C37.3947 28.1837 36.6369 27.9024 35.8361 27.8907C35.0978 27.8907 34.3986 28.1251 33.8127 28.5626C33.6408 26.6564 33.3986 24.9415 33.09 23.3517C32.0666 18.1056 28.9494 11.8637 26.1955 6.34767C25.7307 5.41798 25.2775 4.50787 24.8439 3.62497C24.7423 3.42185 24.7931 3.24217 24.8283 3.16404ZM38.0003 4.29684C36.1722 4.29684 34.6878 5.77734 34.6878 7.60544C34.6878 9.32024 35.9925 10.7343 37.6566 10.9023C37.8831 10.9141 38.1136 10.9141 38.3402 10.9023C40.0082 10.7344 41.309 9.32034 41.309 7.60544C41.3129 5.77344 39.8284 4.29684 38.0003 4.29684ZM49.3713 13.2851C50.8361 19.1367 51.8127 24.1601 52.1643 29.4611C50.7229 30.547 49.7854 32.2853 49.7854 34.2267C49.7854 34.9885 49.9299 35.7189 50.1916 36.3908C49.551 35.8635 48.8908 35.215 48.0978 34.4181L44.672 30.9884C44.8361 28.2853 45.1134 25.9454 45.5197 23.8595C46.1447 20.6603 47.6525 16.9607 49.3713 13.2851ZM56.051 37.5191C55.9533 37.5309 55.8557 37.5426 55.758 37.5426C53.9338 37.5426 52.4455 36.0504 52.4455 34.2262C52.4455 32.3981 53.9299 30.9176 55.758 30.9176C57.5861 30.9176 59.0705 32.3981 59.0705 34.2262C59.0705 35.4801 58.3713 36.57 57.3439 37.1285C56.9259 37.2964 56.4963 37.4293 56.051 37.5191ZM56.1486 16.2221C57.0158 18.2299 57.8127 20.0659 59.3986 21.4799C59.6291 21.6948 59.8752 21.894 60.1369 22.062C61.1135 22.7456 62.3478 23.2964 63.9767 23.6753C65.7697 24.0776 67.8087 24.1792 70.2072 23.9565C70.4338 23.9331 70.5822 24.0464 70.6486 24.1128C70.6643 24.1245 70.6838 24.1479 70.7033 24.1792C70.0549 24.4018 69.4728 24.8276 69.0588 25.4331C67.4885 27.7104 65.7346 29.8823 63.8479 31.9136C63.1721 32.644 62.469 33.3941 61.7229 34.1089C61.6604 30.8706 59.0081 28.2573 55.7581 28.2573C55.4144 28.2573 55.0784 28.2807 54.7503 28.3471C54.2699 22.2924 53.0081 16.5661 51.1683 9.58112C51.5082 8.88581 51.848 8.20222 52.1839 7.54202L55.4027 14.5147C55.6683 15.1007 55.9143 15.6713 56.1486 16.2221ZM63.4455 13.7885C61.6174 13.7885 60.133 15.2807 60.133 17.1049C60.133 18.1127 60.594 19.0229 61.3127 19.6283C61.3284 19.6518 61.344 19.6635 61.3557 19.6713C61.926 20.1323 62.6526 20.4096 63.4416 20.4096C65.2658 20.4096 66.7541 18.9174 66.7541 17.101C66.758 15.2807 65.2736 13.7885 63.4455 13.7885ZM73.8945 24.6405L73.7383 24.5273C73.6484 24.4726 73.5586 24.414 73.4649 24.371C73.4297 23.5546 73.0859 22.7812 72.4961 22.2069C71.8242 21.5468 70.8984 21.2186 69.9609 21.3085C69.1054 21.3866 68.3125 21.4218 67.5664 21.41C68.7031 20.3241 69.4141 18.7967 69.4141 17.1053C69.4141 13.8084 66.7383 11.1287 63.4453 11.1287C61.1797 11.1287 59.207 12.3943 58.1953 14.2576C58.0703 13.9764 57.9453 13.699 57.8047 13.3944L53.6797 4.46075C53.957 3.69903 53.9336 2.87875 53.6094 2.11695C53.125 0.984151 51.9922 0.19895 50.7188 0.13255C49.4727 0.0661444 48.3282 0.69114 47.7266 1.78095C46.5704 3.85515 45.3047 5.67155 43.9493 7.20675C43.7461 4.10125 41.1563 1.63645 37.9962 1.63645C34.8361 1.63645 32.2423 4.10125 32.0431 7.20675C30.6876 5.67155 29.422 3.85515 28.2658 1.78095C27.5119 0.42545 25.9533 -0.19175 24.4767 0.27705L24.3634 0.312206C23.4689 0.605176 22.7501 1.25362 22.3829 2.11691C22.0665 2.86691 22.047 3.69891 22.3165 4.46071L18.1915 13.3943C18.0548 13.6951 17.9259 13.9763 17.8009 14.2576C16.7892 12.3982 14.8165 11.1287 12.5509 11.1287C9.26176 11.1287 6.58206 13.8084 6.58206 17.1053C6.58206 18.7967 7.293 20.3241 8.42976 21.41C7.68367 21.4217 6.88676 21.3865 6.03526 21.3084C5.09776 21.2186 4.17196 21.5428 3.50006 22.2069C2.91022 22.7772 2.56647 23.5507 2.53131 24.371C2.43756 24.4139 2.34772 24.4725 2.25787 24.5272L2.10162 24.6405C0.632823 25.6171 0.156323 27.578 1.01572 29.1249C4.10952 34.6718 7.44542 40.0429 10.9259 45.0859C11.547 45.9921 11.9337 46.8242 12.2189 47.8867C14.7619 57.3594 17.6486 65.9917 21.0353 74.2967C21.5314 75.5076 22.7072 76.2928 24.008 76.2928C24.0822 76.2928 24.1604 76.2928 24.2346 76.2811L24.5471 76.2576C25.4416 76.203 26.2776 75.7654 26.8362 75.0701C27.3948 74.3631 27.637 73.4568 27.5002 72.5701L26.5471 66.2928L30.7463 73.8045C31.4299 75.0272 32.7971 75.6209 34.1525 75.2615L34.4299 75.1951C36.0276 74.7811 36.9885 73.1873 36.6213 71.5857C36.3244 70.2849 35.9963 68.9177 35.6486 67.4724C34.1525 61.2615 32.4572 54.2224 32.4338 49.2454C32.4065 43.1907 34.5041 39.9173 37.4104 35.4014C37.6018 35.1007 37.801 34.796 37.9963 34.4835C38.1956 34.796 38.3909 35.1007 38.5823 35.4014C41.4846 39.917 43.5862 43.1905 43.555 49.2454C43.5315 54.222 41.8362 61.2614 40.3402 67.4724C39.9925 68.9177 39.6605 70.2849 39.3675 71.5857C39.0003 73.1873 39.9613 74.781 41.5589 75.1951L41.8363 75.2615C43.1918 75.6209 44.559 75.0272 45.2425 73.8045L49.4417 66.2928L48.4885 72.5701C48.3518 73.4569 48.5979 74.3631 49.1526 75.0701C49.7112 75.7654 50.5432 76.2029 51.4417 76.2576L51.7542 76.2811C51.8323 76.2928 51.9065 76.2928 51.9808 76.2928C53.2816 76.2928 54.4574 75.5076 54.9535 74.2967C58.3402 65.992 61.2269 57.3587 63.7699 47.8867C64.055 46.8203 64.4417 45.9922 65.0629 45.0859C68.5434 40.0429 71.8793 34.6719 74.9731 29.1249C75.8403 27.578 75.3633 25.6171 73.8945 24.6405Z" fill="black"/>
</svg>
