<svg width="89" height="93" viewBox="0 0 89 93" fill="none" xmlns="http://www.w3.org/2000/svg">
<path d="M3.71652e-05 70.1437C-0.0057736 72.137 0.669958 74.0724 1.91516 75.6289C3.16037 77.1855 4.90023 78.2696 6.8462 78.7015C8.79216 79.1334 10.8273 78.8872 12.6141 78.0036C14.4009 77.12 15.832 75.6523 16.67 73.8437L45.25 82.4737C45.1779 82.9066 45.1411 83.3447 45.14 83.7837C45.14 86.1043 46.0619 88.3299 47.7029 89.9708C49.3438 91.6118 51.5694 92.5337 53.89 92.5337C56.2107 92.5337 58.4363 91.6118 60.0772 89.9708C61.7182 88.3299 62.64 86.1043 62.64 83.7837C62.6351 82.7992 62.4661 81.8225 62.14 80.8937L72.91 75.2837C73.758 76.4487 74.8809 77.386 76.1788 78.0122C77.4766 78.6383 78.9092 78.9338 80.3488 78.8724C81.7885 78.811 83.1907 78.3946 84.4305 77.6603C85.6704 76.9259 86.7094 75.8964 87.4551 74.6634C88.2008 73.4303 88.6301 72.032 88.7047 70.593C88.7793 69.1539 88.497 67.7187 87.8828 66.4152C87.2686 65.1116 86.3417 63.9802 85.1844 63.1215C84.0272 62.2629 82.6756 61.7036 81.25 61.4937V49.9337C83.4519 49.6343 85.457 48.5074 86.8576 46.7824C88.2582 45.0573 88.9492 42.8635 88.7899 40.6471C88.6307 38.4307 87.6333 36.3582 86.0005 34.8511C84.3676 33.3439 82.222 32.5153 80 32.5337C78.4992 32.5304 77.0237 32.92 75.72 33.6637L61.25 14.8737C62.2554 13.8475 62.9927 12.5896 63.3968 11.211C63.8008 9.83241 63.8592 8.37554 63.5668 6.96902C63.2744 5.56251 62.6402 4.24962 61.7202 3.14629C60.8001 2.04296 59.6226 1.18313 58.2915 0.642713C56.9605 0.1023 55.5168 -0.102069 54.088 0.0476524C52.6593 0.197374 51.2894 0.696579 50.0992 1.50119C48.9091 2.3058 47.9354 3.39106 47.2641 4.66115C46.5928 5.93124 46.2445 7.34708 46.25 8.78366C46.2513 9.50604 46.3454 10.2253 46.53 10.9237L20.02 21.8337C19.2785 20.5963 18.2422 19.5616 17.0036 18.8221C15.765 18.0826 14.3626 17.6611 12.9215 17.5954C11.4804 17.5296 10.0455 17.8216 8.74469 18.4452C7.44388 19.0689 6.31766 20.0048 5.46652 21.1695C4.61537 22.3343 4.06576 23.6916 3.86671 25.1204C3.66767 26.5491 3.82538 28.005 4.32577 29.358C4.82617 30.711 5.65369 31.9191 6.73452 32.8746C7.81534 33.83 9.11585 34.503 10.52 34.8337L8.25004 61.4137C6.02058 61.5413 3.92428 62.5164 2.39049 64.1395C0.856696 65.7625 0.00149256 67.9106 3.71652e-05 70.1437ZM16.3 65.7337C15.9282 65.0966 15.478 64.5087 14.96 63.9837L26.79 48.2837L34.14 58.5137L16.3 65.7337ZM12.96 62.4737C12.2577 62.0926 11.5078 61.8067 10.73 61.6237L13.01 35.0037C14.2449 34.9281 15.449 34.587 16.54 34.0037L25.25 46.1637L12.96 62.4737ZM53.33 36.6337L53.11 50.8237L52.78 50.9637L33.98 38.7437L38.12 33.2837L53.33 36.6337ZM39.77 31.0637L50.77 16.4437C51.6471 16.9411 52.6052 17.2796 53.6 17.4437L53.36 34.0837L39.77 31.0637ZM53.06 54.1237L52.74 75.1237C51.7192 75.2517 50.7299 75.5634 49.82 76.0437L38.03 59.6337L52.51 53.7637L53.06 54.1237ZM49.95 52.1237L36.52 57.5437L28.36 46.1937L32.47 40.7537L49.95 52.1237ZM17.39 71.4437C17.462 71.014 17.4988 70.5793 17.5 70.1437C17.4987 69.4396 17.4148 68.7381 17.25 68.0537L35.65 60.5937L47.8 77.4937C47.0323 78.2384 46.4055 79.1158 45.95 80.0837L17.39 71.4437ZM53.86 90.0337C52.6239 90.0337 51.4155 89.6671 50.3877 88.9803C49.3599 88.2936 48.5588 87.3175 48.0858 86.1754C47.6127 85.0334 47.489 83.7767 47.7301 82.5643C47.9713 81.352 48.5665 80.2383 49.4406 79.3642C50.3147 78.4902 51.4283 77.8949 52.6407 77.6538C53.8531 77.4126 55.1098 77.5364 56.2518 78.0094C57.3938 78.4825 58.37 79.2835 59.0567 80.3113C59.7435 81.3392 60.11 82.5475 60.11 83.7837C60.11 85.4413 59.4516 87.031 58.2795 88.2031C57.1074 89.3752 55.5176 90.0337 53.86 90.0337ZM71.75 73.0337L60.95 78.6737C59.5899 76.7931 57.5406 75.5275 55.25 75.1537L55.55 55.7337L72.07 66.4737C71.1008 68.5322 70.9857 70.8906 71.75 73.0337ZM73.43 64.3837L55.58 52.7837V52.5237L72.45 45.6937C73.1147 46.8278 74.0261 47.7978 75.1167 48.5318C76.2073 49.2658 77.4491 49.7449 78.75 49.9337V61.4937C76.6882 61.7899 74.8007 62.8152 73.43 64.3837ZM71.51 43.3837L55.63 49.8037L55.82 37.1937L71.25 40.6237C71.25 40.8437 71.25 41.0637 71.25 41.2837C71.2546 41.9881 71.3419 42.6896 71.51 43.3737V43.3837ZM86.25 70.1437C86.25 71.3798 85.8835 72.5882 85.1967 73.616C84.51 74.6438 83.5338 75.4449 82.3918 75.9179C81.2498 76.391 79.9931 76.5147 78.7807 76.2736C77.5683 76.0324 76.4547 75.4372 75.5806 74.5631C74.7065 73.689 74.1113 72.5754 73.8701 71.363C73.629 70.1506 73.7527 68.8939 74.2258 67.7519C74.6988 66.6099 75.4999 65.6337 76.5277 64.947C77.5555 64.2602 78.7639 63.8937 80 63.8937C81.6568 63.8963 83.245 64.5556 84.4165 65.7272C85.5881 66.8987 86.2474 68.4869 86.25 70.1437ZM80 35.0337C81.2362 35.0337 82.4445 35.4002 83.4724 36.087C84.5002 36.7737 85.3012 37.7498 85.7743 38.8919C86.2473 40.0339 86.3711 41.2906 86.1299 42.503C85.8888 43.7154 85.2935 44.829 84.4195 45.7031C83.5454 46.5772 82.4317 47.1724 81.2194 47.4136C80.007 47.6547 78.7503 47.531 77.6083 47.0579C76.4662 46.5849 75.4901 45.7838 74.8034 44.756C74.1166 43.7282 73.75 42.5198 73.75 41.2837C73.75 39.6261 74.4085 38.0363 75.5806 36.8642C76.7527 35.6921 78.3424 35.0337 80 35.0337ZM73.73 35.1937C72.8999 36.0545 72.2534 37.0752 71.83 38.1937L55.83 34.6437L56.09 17.4637C57.202 17.318 58.2752 16.958 59.25 16.4037L73.73 35.1937ZM55 2.53366C56.2362 2.53366 57.4445 2.90022 58.4724 3.58698C59.5002 4.27373 60.3012 5.24985 60.7743 6.39189C61.2473 7.53393 61.3711 8.79059 61.1299 10.003C60.8888 11.2154 60.2935 12.329 59.4195 13.2031C58.5454 14.0772 57.4317 14.6724 56.2194 14.9136C55.007 15.1547 53.7503 15.031 52.6083 14.5579C51.4662 14.0849 50.4901 13.2838 49.8034 12.256C49.1166 11.2282 48.75 10.0198 48.75 8.78366C48.75 7.12606 49.4085 5.53635 50.5806 4.36424C51.7527 3.19214 53.3424 2.53366 55 2.53366ZM47.48 13.2837C47.8477 13.9034 48.2874 14.4773 48.79 14.9937L37.09 30.4637L21.25 26.9437C21.25 26.7237 21.25 26.5037 21.25 26.2837C21.2488 25.5613 21.1547 24.8421 20.97 24.1437L47.48 13.2837ZM20.67 29.3837L35.44 32.6637L31.88 37.3837L20.43 29.9437C20.5202 29.7615 20.6004 29.5746 20.67 29.3837ZM30.37 39.3837L26.83 44.0737L18.57 32.5737C18.74 32.4037 18.91 32.2237 19.07 32.0437L30.37 39.3837ZM6.25004 26.2837C6.25004 25.0475 6.61659 23.8392 7.30335 22.8113C7.99011 21.7835 8.96623 20.9825 10.1083 20.5094C11.2503 20.0364 12.507 19.9126 13.7194 20.1538C14.9317 20.3949 16.0454 20.9902 16.9195 21.8642C17.7935 22.7383 18.3888 23.852 18.6299 25.0643C18.8711 26.2767 18.7473 27.5334 18.2743 28.6754C17.8012 29.8175 17.0002 30.7936 15.9724 31.4803C14.9445 32.1671 13.7362 32.5337 12.5 32.5337C10.8424 32.5337 9.25272 31.8752 8.08062 30.7031C6.90852 29.531 6.25004 27.9413 6.25004 26.2837ZM15 70.1437C15 71.3798 14.6335 72.5882 13.9467 73.616C13.26 74.6438 12.2838 75.4449 11.1418 75.9179C9.99977 76.391 8.7431 76.5147 7.53072 76.2736C6.31834 76.0324 5.2047 75.4372 4.33062 74.5631C3.45654 73.689 2.86129 72.5754 2.62013 71.363C2.37897 70.1506 2.50274 68.8939 2.97579 67.7519C3.44884 66.6099 4.24992 65.6337 5.27772 64.947C6.30553 64.2602 7.5139 63.8937 8.75004 63.8937C10.4068 63.8963 11.995 64.5556 13.1665 65.7272C14.3381 66.8987 14.9974 68.4869 15 70.1437Z" fill="black"/>
</svg>
